<svg width="372" height="75" viewBox="0 0 372 75" fill="none" xmlns="http://www.w3.org/2000/svg">
<path d="M15.8 39.4C11.9333 39.4 8.92 38.32 6.76 36.16C4.6 33.9733 3.52 30.8533 3.52 26.8V11H8.72V26.6C8.72 32.0933 11.0933 34.84 15.84 34.84C20.56 34.84 22.92 32.0933 22.92 26.6V11H28.04V26.8C28.04 30.8533 26.96 33.9733 24.8 36.16C22.6667 38.32 19.6667 39.4 15.8 39.4ZM44.9625 27.28L40.5225 31.84V39H35.3225V11H40.5225V25.36L54.3625 11H60.2025L48.4425 23.52L60.9225 39H54.8425L44.9625 27.28ZM82.7831 39L77.0631 30.8C76.8231 30.8267 76.4631 30.84 75.9831 30.84H69.6631V39H64.4631V11H75.9831C78.4098 11 80.5165 11.4 82.3031 12.2C84.1165 13 85.5031 14.1467 86.4631 15.64C87.4231 17.1333 87.9031 18.9067 87.9031 20.96C87.9031 23.0667 87.3831 24.88 86.3431 26.4C85.3298 27.92 83.8631 29.0533 81.9431 29.8L88.3831 39H82.7831ZM82.6631 20.96C82.6631 19.1733 82.0765 17.8 80.9031 16.84C79.7298 15.88 78.0098 15.4 75.7431 15.4H69.6631V26.56H75.7431C78.0098 26.56 79.7298 26.08 80.9031 25.12C82.0765 24.1333 82.6631 22.7467 82.6631 20.96ZM111.881 32.52H97.8809L95.1209 39H89.7609L102.361 11H107.481L120.121 39H114.681L111.881 32.52ZM110.161 28.44L104.881 16.2L99.6409 28.44H110.161ZM123.682 11H128.882V39H123.682V11ZM161.335 11V39H157.055L141.615 20.04V39H136.455V11H140.735L156.175 29.96V11H161.335ZM168.838 11H174.038V39H168.838V11ZM199.772 32.52H185.772L183.012 39H177.652L190.252 11H195.372L208.012 39H202.572L199.772 32.52ZM198.052 28.44L192.772 16.2L187.532 28.44H198.052ZM236.453 11V39H232.173L216.733 20.04V39H211.573V11H215.853L231.293 29.96V11H236.453Z" fill="white"/>
<path d="M58.8135 54.22C60.5295 54.22 61.8902 54.7227 62.8955 55.728C63.9182 56.716 64.4295 58.1633 64.4295 60.07V68H62.5835V60.252C62.5835 58.8307 62.2282 57.7473 61.5175 57.002C60.8068 56.2567 59.7928 55.884 58.4755 55.884C57.0022 55.884 55.8322 56.326 54.9655 57.21C54.1162 58.0767 53.6915 59.2813 53.6915 60.824V68H51.8455V54.324H53.6135V56.846C54.1162 56.014 54.8095 55.3727 55.6935 54.922C56.5948 54.454 57.6348 54.22 58.8135 54.22ZM74.2252 54.22C76.0105 54.22 77.3799 54.6707 78.3332 55.572C79.2865 56.456 79.7632 57.7733 79.7632 59.524V68H77.9952V65.868C77.5792 66.5787 76.9639 67.1333 76.1492 67.532C75.3519 67.9307 74.3985 68.13 73.2892 68.13C71.7639 68.13 70.5505 67.766 69.6492 67.038C68.7479 66.31 68.2972 65.348 68.2972 64.152C68.2972 62.9907 68.7132 62.0547 69.5452 61.344C70.3945 60.6333 71.7379 60.278 73.5752 60.278H77.9172V59.446C77.9172 58.2673 77.5879 57.3747 76.9292 56.768C76.2705 56.144 75.3085 55.832 74.0432 55.832C73.1765 55.832 72.3445 55.9793 71.5472 56.274C70.7499 56.5513 70.0652 56.9413 69.4932 57.444L68.6612 56.066C69.3545 55.4767 70.1865 55.026 71.1572 54.714C72.1279 54.3847 73.1505 54.22 74.2252 54.22ZM73.5752 66.674C74.6152 66.674 75.5079 66.44 76.2532 65.972C76.9985 65.4867 77.5532 64.7933 77.9172 63.892V61.656H73.6272C71.2872 61.656 70.1172 62.4707 70.1172 64.1C70.1172 64.8973 70.4205 65.53 71.0272 65.998C71.6339 66.4487 72.4832 66.674 73.5752 66.674ZM91.9791 67.168C91.6325 67.48 91.1991 67.7227 90.6791 67.896C90.1765 68.052 89.6478 68.13 89.0931 68.13C87.8105 68.13 86.8225 67.7833 86.1291 67.09C85.4358 66.3967 85.0891 65.4173 85.0891 64.152V55.884H82.6451V54.324H85.0891V51.334H86.9351V54.324H91.0951V55.884H86.9351V64.048C86.9351 64.8627 87.1345 65.4867 87.5331 65.92C87.9491 66.336 88.5385 66.544 89.3011 66.544C89.6825 66.544 90.0465 66.4833 90.3931 66.362C90.7571 66.2407 91.0691 66.0673 91.3291 65.842L91.9791 67.168ZM107.664 54.324V68H105.896V65.504C105.41 66.336 104.743 66.986 103.894 67.454C103.044 67.9047 102.074 68.13 100.982 68.13C99.1963 68.13 97.7836 67.636 96.7436 66.648C95.721 65.6427 95.2096 64.178 95.2096 62.254V54.324H97.0556V62.072C97.0556 63.5107 97.411 64.6027 98.1216 65.348C98.8323 66.0933 99.8463 66.466 101.164 66.466C102.602 66.466 103.738 66.0327 104.57 65.166C105.402 64.282 105.818 63.06 105.818 61.5V54.324H107.664ZM114.602 57.002C115.035 56.0833 115.676 55.39 116.526 54.922C117.392 54.454 118.458 54.22 119.724 54.22V56.014L119.282 55.988C117.843 55.988 116.716 56.43 115.902 57.314C115.087 58.198 114.68 59.4373 114.68 61.032V68H112.834V54.324H114.602V57.002ZM127.825 54.22C129.61 54.22 130.979 54.6707 131.933 55.572C132.886 56.456 133.363 57.7733 133.363 59.524V68H131.595V65.868C131.179 66.5787 130.563 67.1333 129.749 67.532C128.951 67.9307 127.998 68.13 126.889 68.13C125.363 68.13 124.15 67.766 123.249 67.038C122.347 66.31 121.897 65.348 121.897 64.152C121.897 62.9907 122.313 62.0547 123.145 61.344C123.994 60.6333 125.337 60.278 127.175 60.278H131.517V59.446C131.517 58.2673 131.187 57.3747 130.529 56.768C129.87 56.144 128.908 55.832 127.643 55.832C126.776 55.832 125.944 55.9793 125.147 56.274C124.349 56.5513 123.665 56.9413 123.093 57.444L122.261 56.066C122.954 55.4767 123.786 55.026 124.757 54.714C125.727 54.3847 126.75 54.22 127.825 54.22ZM127.175 66.674C128.215 66.674 129.107 66.44 129.853 65.972C130.598 65.4867 131.153 64.7933 131.517 63.892V61.656H127.227C124.887 61.656 123.717 62.4707 123.717 64.1C123.717 64.8973 124.02 65.53 124.627 65.998C125.233 66.4487 126.083 66.674 127.175 66.674ZM138.377 48.708H140.223V68H138.377V48.708ZM152.327 54.22C154.043 54.22 155.404 54.7227 156.409 55.728C157.432 56.716 157.943 58.1633 157.943 60.07V68H156.097V60.252C156.097 58.8307 155.742 57.7473 155.031 57.002C154.32 56.2567 153.306 55.884 151.989 55.884C150.516 55.884 149.346 56.326 148.479 57.21C147.63 58.0767 147.205 59.2813 147.205 60.824V68H145.359V54.324H147.127V56.846C147.63 56.014 148.323 55.3727 149.207 54.922C150.108 54.454 151.148 54.22 152.327 54.22ZM174.914 61.734H163.474C163.578 63.1553 164.124 64.308 165.112 65.192C166.1 66.0587 167.348 66.492 168.856 66.492C169.705 66.492 170.485 66.3447 171.196 66.05C171.906 65.738 172.522 65.2873 173.042 64.698L174.082 65.894C173.475 66.622 172.712 67.1767 171.794 67.558C170.892 67.9393 169.896 68.13 168.804 68.13C167.4 68.13 166.152 67.8353 165.06 67.246C163.985 66.6393 163.144 65.8073 162.538 64.75C161.931 63.6927 161.628 62.4967 161.628 61.162C161.628 59.8273 161.914 58.6313 162.486 57.574C163.075 56.5167 163.872 55.6933 164.878 55.104C165.9 54.5147 167.044 54.22 168.31 54.22C169.575 54.22 170.71 54.5147 171.716 55.104C172.721 55.6933 173.51 56.5167 174.082 57.574C174.654 58.614 174.94 59.81 174.94 61.162L174.914 61.734ZM168.31 55.806C166.992 55.806 165.883 56.2307 164.982 57.08C164.098 57.912 163.595 59.004 163.474 60.356H173.172C173.05 59.004 172.539 57.912 171.638 57.08C170.754 56.2307 169.644 55.806 168.31 55.806ZM182.363 68.13C181.254 68.13 180.188 67.974 179.165 67.662C178.16 67.3327 177.371 66.9253 176.799 66.44L177.631 64.984C178.203 65.4347 178.922 65.8073 179.789 66.102C180.656 66.3793 181.557 66.518 182.493 66.518C183.741 66.518 184.66 66.3273 185.249 65.946C185.856 65.5473 186.159 64.9927 186.159 64.282C186.159 63.7793 185.994 63.3893 185.665 63.112C185.336 62.8173 184.92 62.6007 184.417 62.462C183.914 62.306 183.247 62.1587 182.415 62.02C181.306 61.812 180.413 61.604 179.737 61.396C179.061 61.1707 178.48 60.798 177.995 60.278C177.527 59.758 177.293 59.0387 177.293 58.12C177.293 56.976 177.77 56.04 178.723 55.312C179.676 54.584 181.002 54.22 182.701 54.22C183.585 54.22 184.469 54.3413 185.353 54.584C186.237 54.8093 186.965 55.1127 187.537 55.494L186.731 56.976C185.604 56.196 184.261 55.806 182.701 55.806C181.522 55.806 180.63 56.014 180.023 56.43C179.434 56.846 179.139 57.392 179.139 58.068C179.139 58.588 179.304 59.004 179.633 59.316C179.98 59.628 180.404 59.862 180.907 60.018C181.41 60.1567 182.103 60.304 182.987 60.46C184.079 60.668 184.954 60.876 185.613 61.084C186.272 61.292 186.835 61.6473 187.303 62.15C187.771 62.6527 188.005 63.346 188.005 64.23C188.005 65.426 187.502 66.3793 186.497 67.09C185.509 67.7833 184.131 68.13 182.363 68.13ZM195.084 68.13C193.974 68.13 192.908 67.974 191.886 67.662C190.88 67.3327 190.092 66.9253 189.52 66.44L190.352 64.984C190.924 65.4347 191.643 65.8073 192.51 66.102C193.376 66.3793 194.278 66.518 195.214 66.518C196.462 66.518 197.38 66.3273 197.97 65.946C198.576 65.5473 198.88 64.9927 198.88 64.282C198.88 63.7793 198.715 63.3893 198.386 63.112C198.056 62.8173 197.64 62.6007 197.138 62.462C196.635 62.306 195.968 62.1587 195.136 62.02C194.026 61.812 193.134 61.604 192.458 61.396C191.782 61.1707 191.201 60.798 190.716 60.278C190.248 59.758 190.014 59.0387 190.014 58.12C190.014 56.976 190.49 56.04 191.444 55.312C192.397 54.584 193.723 54.22 195.422 54.22C196.306 54.22 197.19 54.3413 198.074 54.584C198.958 54.8093 199.686 55.1127 200.258 55.494L199.452 56.976C198.325 56.196 196.982 55.806 195.422 55.806C194.243 55.806 193.35 56.014 192.744 56.43C192.154 56.846 191.86 57.392 191.86 58.068C191.86 58.588 192.024 59.004 192.354 59.316C192.7 59.628 193.125 59.862 193.628 60.018C194.13 60.1567 194.824 60.304 195.708 60.46C196.8 60.668 197.675 60.876 198.334 61.084C198.992 61.292 199.556 61.6473 200.024 62.15C200.492 62.6527 200.726 63.346 200.726 64.23C200.726 65.426 200.223 66.3793 199.218 67.09C198.23 67.7833 196.852 68.13 195.084 68.13ZM224.359 68.286L221.837 65.686C220.294 67.3327 218.266 68.156 215.753 68.156C214.574 68.156 213.517 67.9653 212.581 67.584C211.662 67.1853 210.943 66.6393 210.423 65.946C209.903 65.2353 209.643 64.4293 209.643 63.528C209.643 62.436 209.99 61.4567 210.683 60.59C211.376 59.7233 212.555 58.8133 214.219 57.86C213.352 56.9587 212.754 56.196 212.425 55.572C212.096 54.9307 211.931 54.2547 211.931 53.544C211.931 52.3827 212.347 51.4467 213.179 50.736C214.011 50.0253 215.129 49.67 216.533 49.67C217.833 49.67 218.864 49.9907 219.627 50.632C220.39 51.2733 220.771 52.1573 220.771 53.284C220.771 54.1853 220.468 55 219.861 55.728C219.254 56.4387 218.206 57.2273 216.715 58.094L221.707 63.242C222.262 62.254 222.669 61.084 222.929 59.732L224.437 60.2C224.108 61.8293 223.57 63.2247 222.825 64.386L225.425 67.064L224.359 68.286ZM216.533 51.048C215.632 51.048 214.921 51.2733 214.401 51.724C213.898 52.1747 213.647 52.7727 213.647 53.518C213.647 54.0553 213.786 54.5667 214.063 55.052C214.34 55.5373 214.886 56.196 215.701 57.028C217.018 56.2653 217.928 55.6153 218.431 55.078C218.934 54.5407 219.185 53.9513 219.185 53.31C219.185 52.6167 218.951 52.0707 218.483 51.672C218.015 51.256 217.365 51.048 216.533 51.048ZM215.857 66.622C217.868 66.622 219.497 65.9373 220.745 64.568L215.259 58.926C213.82 59.7407 212.824 60.4773 212.269 61.136C211.732 61.7947 211.463 62.5313 211.463 63.346C211.463 64.334 211.862 65.1313 212.659 65.738C213.474 66.3273 214.54 66.622 215.857 66.622ZM242.186 54.22C243.469 54.22 244.63 54.5147 245.67 55.104C246.71 55.676 247.525 56.4907 248.114 57.548C248.704 58.6053 248.998 59.81 248.998 61.162C248.998 62.514 248.704 63.7187 248.114 64.776C247.525 65.8333 246.71 66.6567 245.67 67.246C244.63 67.8353 243.469 68.13 242.186 68.13C241.042 68.13 240.011 67.8873 239.092 67.402C238.191 66.9167 237.463 66.2147 236.908 65.296V68H235.14V48.708H236.986V56.924C237.558 56.04 238.286 55.3727 239.17 54.922C240.072 54.454 241.077 54.22 242.186 54.22ZM242.056 66.492C243.01 66.492 243.876 66.2753 244.656 65.842C245.436 65.3913 246.043 64.7587 246.476 63.944C246.927 63.1293 247.152 62.202 247.152 61.162C247.152 60.122 246.927 59.1947 246.476 58.38C246.043 57.5653 245.436 56.9413 244.656 56.508C243.876 56.0573 243.01 55.832 242.056 55.832C241.086 55.832 240.21 56.0573 239.43 56.508C238.668 56.9413 238.061 57.5653 237.61 58.38C237.177 59.1947 236.96 60.122 236.96 61.162C236.96 62.202 237.177 63.1293 237.61 63.944C238.061 64.7587 238.668 65.3913 239.43 65.842C240.21 66.2753 241.086 66.492 242.056 66.492ZM264.67 61.734H253.23C253.334 63.1553 253.88 64.308 254.868 65.192C255.856 66.0587 257.104 66.492 258.612 66.492C259.461 66.492 260.241 66.3447 260.952 66.05C261.662 65.738 262.278 65.2873 262.798 64.698L263.838 65.894C263.231 66.622 262.468 67.1767 261.55 67.558C260.648 67.9393 259.652 68.13 258.56 68.13C257.156 68.13 255.908 67.8353 254.816 67.246C253.741 66.6393 252.9 65.8073 252.294 64.75C251.687 63.6927 251.384 62.4967 251.384 61.162C251.384 59.8273 251.67 58.6313 252.242 57.574C252.831 56.5167 253.628 55.6933 254.634 55.104C255.656 54.5147 256.8 54.22 258.066 54.22C259.331 54.22 260.466 54.5147 261.472 55.104C262.477 55.6933 263.266 56.5167 263.838 57.574C264.41 58.614 264.696 59.81 264.696 61.162L264.67 61.734ZM258.066 55.806C256.748 55.806 255.639 56.2307 254.738 57.08C253.854 57.912 253.351 59.004 253.23 60.356H262.928C262.806 59.004 262.295 57.912 261.394 57.08C260.51 56.2307 259.4 55.806 258.066 55.806ZM272.856 54.22C274.641 54.22 276.011 54.6707 276.964 55.572C277.917 56.456 278.394 57.7733 278.394 59.524V68H276.626V65.868C276.21 66.5787 275.595 67.1333 274.78 67.532C273.983 67.9307 273.029 68.13 271.92 68.13C270.395 68.13 269.181 67.766 268.28 67.038C267.379 66.31 266.928 65.348 266.928 64.152C266.928 62.9907 267.344 62.0547 268.176 61.344C269.025 60.6333 270.369 60.278 272.206 60.278H276.548V59.446C276.548 58.2673 276.219 57.3747 275.56 56.768C274.901 56.144 273.939 55.832 272.674 55.832C271.807 55.832 270.975 55.9793 270.178 56.274C269.381 56.5513 268.696 56.9413 268.124 57.444L267.292 56.066C267.985 55.4767 268.817 55.026 269.788 54.714C270.759 54.3847 271.781 54.22 272.856 54.22ZM272.206 66.674C273.246 66.674 274.139 66.44 274.884 65.972C275.629 65.4867 276.184 64.7933 276.548 63.892V61.656H272.258C269.918 61.656 268.748 62.4707 268.748 64.1C268.748 64.8973 269.051 65.53 269.658 65.998C270.265 66.4487 271.114 66.674 272.206 66.674ZM295.732 54.324V68H293.964V65.504C293.479 66.336 292.811 66.986 291.962 67.454C291.113 67.9047 290.142 68.13 289.05 68.13C287.265 68.13 285.852 67.636 284.812 66.648C283.789 65.6427 283.278 64.178 283.278 62.254V54.324H285.124V62.072C285.124 63.5107 285.479 64.6027 286.19 65.348C286.901 66.0933 287.915 66.466 289.232 66.466C290.671 66.466 291.806 66.0327 292.638 65.166C293.47 64.282 293.886 63.06 293.886 61.5V54.324H295.732ZM308.104 67.168C307.757 67.48 307.324 67.7227 306.804 67.896C306.301 68.052 305.773 68.13 305.218 68.13C303.935 68.13 302.947 67.7833 302.254 67.09C301.561 66.3967 301.214 65.4173 301.214 64.152V55.884H298.77V54.324H301.214V51.334H303.06V54.324H307.22V55.884H303.06V64.048C303.06 64.8627 303.259 65.4867 303.658 65.92C304.074 66.336 304.663 66.544 305.426 66.544C305.807 66.544 306.171 66.4833 306.518 66.362C306.882 66.2407 307.194 66.0673 307.454 65.842L308.104 67.168ZM322.703 54.324L315.865 69.638C315.31 70.9207 314.669 71.8307 313.941 72.368C313.213 72.9053 312.337 73.174 311.315 73.174C310.656 73.174 310.041 73.07 309.469 72.862C308.897 72.654 308.403 72.342 307.987 71.926L308.845 70.548C309.538 71.2413 310.37 71.588 311.341 71.588C311.965 71.588 312.493 71.4147 312.927 71.068C313.377 70.7213 313.793 70.132 314.175 69.3L314.773 67.974L308.663 54.324H310.587L315.735 65.946L320.883 54.324H322.703Z" fill="white"/>
<path d="M279.08 39L273.36 30.8C273.12 30.8267 272.76 30.84 272.28 30.84H265.96V39H260.76V11H272.28C274.707 11 276.813 11.4 278.6 12.2C280.413 13 281.8 14.1467 282.76 15.64C283.72 17.1333 284.2 18.9067 284.2 20.96C284.2 23.0667 283.68 24.88 282.64 26.4C281.627 27.92 280.16 29.0533 278.24 29.8L284.68 39H279.08ZM278.96 20.96C278.96 19.1733 278.373 17.8 277.2 16.84C276.027 15.88 274.307 15.4 272.04 15.4H265.96V26.56H272.04C274.307 26.56 276.027 26.08 277.2 25.12C278.373 24.1333 278.96 22.7467 278.96 20.96ZM303.098 39.4C300.244 39.4 297.671 38.7867 295.378 37.56C293.084 36.3067 291.284 34.5867 289.978 32.4C288.671 30.1867 288.018 27.72 288.018 25C288.018 22.28 288.671 19.8267 289.978 17.64C291.284 15.4267 293.084 13.7067 295.378 12.48C297.671 11.2267 300.244 10.6 303.098 10.6C305.951 10.6 308.524 11.2267 310.818 12.48C313.111 13.7067 314.911 15.4133 316.218 17.6C317.524 19.7867 318.178 22.2533 318.178 25C318.178 27.7467 317.524 30.2133 316.218 32.4C314.911 34.5867 313.111 36.3067 310.818 37.56C308.524 38.7867 305.951 39.4 303.098 39.4ZM303.098 34.84C304.964 34.84 306.644 34.4267 308.138 33.6C309.631 32.7467 310.804 31.5733 311.658 30.08C312.511 28.56 312.938 26.8667 312.938 25C312.938 23.1333 312.511 21.4533 311.658 19.96C310.804 18.44 309.631 17.2667 308.138 16.44C306.644 15.5867 304.964 15.16 303.098 15.16C301.231 15.16 299.551 15.5867 298.058 16.44C296.564 17.2667 295.391 18.44 294.538 19.96C293.684 21.4533 293.258 23.1333 293.258 25C293.258 26.8667 293.684 28.56 294.538 30.08C295.391 31.5733 296.564 32.7467 298.058 33.6C299.551 34.4267 301.231 34.84 303.098 34.84ZM332.37 39.4C330.21 39.4 328.116 39.0933 326.09 38.48C324.09 37.8667 322.503 37.0533 321.33 36.04L323.13 32C324.276 32.9067 325.676 33.6533 327.33 34.24C329.01 34.8 330.69 35.08 332.37 35.08C334.45 35.08 335.996 34.7467 337.01 34.08C338.05 33.4133 338.57 32.5333 338.57 31.44C338.57 30.64 338.276 29.9867 337.69 29.48C337.13 28.9467 336.41 28.5333 335.53 28.24C334.65 27.9467 333.45 27.6133 331.93 27.24C329.796 26.7333 328.063 26.2267 326.73 25.72C325.423 25.2133 324.29 24.4267 323.33 23.36C322.396 22.2667 321.93 20.8 321.93 18.96C321.93 17.4133 322.343 16.0133 323.17 14.76C324.023 13.48 325.29 12.4667 326.97 11.72C328.676 10.9733 330.756 10.6 333.21 10.6C334.916 10.6 336.596 10.8133 338.25 11.24C339.903 11.6667 341.33 12.28 342.53 13.08L340.89 17.12C339.663 16.4 338.383 15.8533 337.05 15.48C335.716 15.1067 334.423 14.92 333.17 14.92C331.116 14.92 329.583 15.2667 328.57 15.96C327.583 16.6533 327.09 17.5733 327.09 18.72C327.09 19.52 327.37 20.1733 327.93 20.68C328.516 21.1867 329.25 21.5867 330.13 21.88C331.01 22.1733 332.21 22.5067 333.73 22.88C335.81 23.36 337.516 23.8667 338.85 24.4C340.183 24.9067 341.316 25.6933 342.25 26.76C343.21 27.8267 343.69 29.2667 343.69 31.08C343.69 32.6267 343.263 34.0267 342.41 35.28C341.583 36.5333 340.316 37.5333 338.61 38.28C336.903 39.0267 334.823 39.4 332.37 39.4ZM369.846 34.64V39H348.846V11H369.286V15.36H354.046V22.64H367.566V26.92H354.046V34.64H369.846Z" fill="white"/>
<circle cx="249" cy="25" r="5" fill="#E50404"/>
</svg>
